<?xml version="1.0" encoding="UTF-8"?>
<svg width="30px" height="25px" viewBox="0 0 30 25" version="1.1" xmlns="http://www.w3.org/2000/svg" xmlns:xlink="http://www.w3.org/1999/xlink">
  <g stroke="none" stroke-width="1" fill-rule="evenodd">
    <path d="M1.26458562,1.00035785 C1.1089313,1.03005784 0.997258905,1.16750079 1.00005122,1.32593865 L1.00005122,19.5584634 C1.00006919,19.7382693 1.14582615,19.8840263 1.32563202,19.8840442 C4.73341657,19.8840442 7.34893574,20.0555928 9.47532641,20.616601 C11.6017171,21.1776093 13.2425522,22.1145983 14.7660144,23.6892698 C14.8273586,23.7526727 14.9118042,23.7884703 15.0000256,23.7884703 C15.0882471,23.7884703 15.1726927,23.7526727 15.2340368,23.6892698 C16.757499,22.1145983 18.3983341,21.1776093 20.5247248,20.616601 C22.6511155,20.0555928 25.2666346,19.8840442 28.6744192,19.8840442 C28.8542251,19.8840263 28.999982,19.7382693 29,19.5584634 L29,1.32593865 C28.999982,1.14613279 28.8542251,1.00037583 28.6744192,1.00035785 C25.245007,1.00035785 22.583239,1.1672115 20.3619344,1.75326345 C18.2459607,2.31152708 16.5383252,3.27973276 15.0000256,4.79540905 C13.461726,3.27973276 11.7540905,2.31152708 9.63811681,1.75326345 C7.41681218,1.1672115 5.58062414,1.00035785 2.1512119,1.00035785 C2.1410431,0.999880715 1.30527762,0.999880715 1.29510882,1.00035785 C1.28494001,0.999880715 1.27475442,0.999880715 1.26458562,1.00035785 Z M1.65121282,1.66169385 C4.88298025,1.67380546 7.42487258,1.84310096 9.47532641,2.38407625 C11.5590129,2.93382106 13.1768129,3.84713186 14.6744448,5.36517545 L14.6744448,22.7328762 C13.2191156,21.3907921 11.6087096,20.5056744 9.63811681,19.9857882 C7.4952638,19.4204172 4.90768402,19.2548431 1.65121282,19.243057 L1.65121282,1.66169385 Z M28.3488384,1.66169385 L28.3488384,19.243057 C25.0923672,19.254778 22.5047874,19.4204172 20.3619344,19.9857882 C18.3913416,20.5056744 16.7809357,21.3907921 15.3256064,22.7328762 L15.3256064,5.36517545 C16.8232384,3.84713186 18.4410383,2.93382106 20.5247248,2.38407625 C22.5751786,1.84310096 25.117071,1.67381197 28.3488384,1.66169385 Z M3.86923201,4.90732745 C3.6894187,4.92418495 3.55731692,5.08361814 3.57417441,5.26343145 C3.59103191,5.44324476 3.7504651,5.57534655 3.93027841,5.55848905 C6.56313378,5.55848905 8.62237179,5.86818151 10.329976,6.51488265 C10.44078,6.562701 10.568944,6.54531356 10.6630028,6.46970234 C10.7570617,6.39409113 10.8015869,6.27265875 10.7786991,6.15416709 C10.7558113,6.03567543 10.6692648,5.93956082 10.5538128,5.90441865 C8.74865872,5.2207706 6.61401555,4.90732745 3.93027841,4.90732745 C3.90997452,4.90541573 3.88953591,4.90541573 3.86923201,4.90732745 Z M26.0697728,4.90732745 C23.3860357,4.90732745 21.2513925,5.2207706 19.4462384,5.90441865 C19.3307865,5.93956082 19.2442399,6.03567543 19.2213521,6.15416709 C19.1984643,6.27265875 19.2429895,6.39409113 19.3370484,6.46970234 C19.4311073,6.54531356 19.5592712,6.562701 19.6700752,6.51488265 C21.3776794,5.86818151 23.4369174,5.55848905 26.0697728,5.55848905 C26.1871889,5.56014961 26.2964035,5.49846 26.3555962,5.39704237 C26.4147888,5.29562475 26.4147888,5.17019175 26.3555962,5.06877413 C26.2964035,4.96735651 26.1871889,4.9056669 26.0697728,4.90732745 Z M3.86923201,8.48871625 C3.68941871,8.50557375 3.55731693,8.66500694 3.57417442,8.84482025 C3.59103192,9.02463356 3.75046511,9.15673534 3.93027841,9.13987785 C7.60978424,9.13987785 10.1622521,9.78466458 12.2224144,11.0424906 C12.3223762,11.1042949 12.4477177,11.1080725 12.5512201,11.0524003 C12.6547225,10.9967281 12.7206597,10.8900649 12.7241919,10.772593 C12.7277241,10.6551211 12.6683145,10.5446889 12.568344,10.4828986 C10.3879076,9.15164108 7.68672159,8.48871625 3.93027841,8.48871625 C3.90997452,8.48680453 3.88953591,8.48680453 3.86923201,8.48871625 Z M26.0697728,8.48871625 C22.3133296,8.48871625 19.6121436,9.15164108 17.4317072,10.4828986 C17.3317367,10.5446889 17.2723272,10.6551211 17.2758593,10.772593 C17.2793915,10.8900649 17.3453288,10.9967281 17.4488311,11.0524003 C17.5523335,11.1080725 17.677675,11.1042949 17.7776368,11.0424906 C19.8377991,9.78466458 22.390267,9.13987785 26.0697728,9.13987785 C26.1871889,9.14153841 26.2964035,9.07984879 26.3555962,8.97843117 C26.4147888,8.87701355 26.4147888,8.75158055 26.3555962,8.65016293 C26.2964035,8.54874531 26.1871889,8.48705569 26.0697728,8.48871625 Z M3.86923201,12.070105 C3.68941871,12.0869626 3.55731693,12.2463957 3.57417442,12.426209 C3.59103192,12.6060224 3.75046511,12.7381241 3.93027841,12.7212666 C7.60978424,12.7212666 10.1622521,13.3660306 12.2224144,14.6238794 C12.3224057,14.6865934 12.4483327,14.6909284 12.5524001,14.6352393 C12.6564675,14.5795502 12.7227218,14.472374 12.7260166,14.354389 C12.7293113,14.2364041 12.6691414,14.1256975 12.568344,14.0642874 C10.3879076,12.7330201 7.68672159,12.070105 3.93027841,12.070105 C3.90997452,12.0681933 3.88953591,12.0681933 3.86923201,12.070105 Z M26.0697728,12.070105 C22.3133296,12.070105 19.6121436,12.7330201 17.4317072,14.0642874 C17.3309098,14.1256975 17.2707399,14.2364041 17.2740346,14.354389 C17.2773294,14.472374 17.3435838,14.5795502 17.4476512,14.6352393 C17.5517186,14.6909284 17.6776455,14.6865934 17.7776368,14.6238794 C19.8377991,13.3660306 22.390267,12.7212666 26.0697728,12.7212666 C26.1871889,12.7229272 26.2964035,12.6612376 26.3555962,12.55982 C26.4147888,12.4584023 26.4147888,12.3329693 26.3555962,12.2315517 C26.2964035,12.1301341 26.1871889,12.0684445 26.0697728,12.070105 Z M3.86923201,15.6514938 C3.68941871,15.6683513 3.55731693,15.8277845 3.57417442,16.0075978 C3.59103192,16.1874112 3.75046511,16.3195129 3.93027841,16.3026554 C7.60978424,16.3026554 10.1622521,16.9474194 12.2224144,18.2052682 C12.3224057,18.2679822 12.4483327,18.2723172 12.5524001,18.2166281 C12.6564675,18.160939 12.7227218,18.0537628 12.7260166,17.9357778 C12.7293113,17.8177929 12.6691414,17.7070863 12.568344,17.6456762 C10.3879076,16.3144089 7.68672159,15.6514938 3.93027841,15.6514938 C3.90997452,15.6495821 3.88953591,15.6495821 3.86923201,15.6514938 Z M26.0697728,15.6514938 C22.3133296,15.6514938 19.6121436,16.3144089 17.4317072,17.6456762 C17.3309098,17.7070863 17.2707399,17.8177929 17.2740346,17.9357778 C17.2773294,18.0537628 17.3435838,18.160939 17.4476512,18.2166281 C17.5517186,18.2723172 17.6776455,18.2679822 17.7776368,18.2052682 C19.8377991,16.9474194 22.390267,16.3026554 26.0697728,16.3026554 C26.1871889,16.304316 26.2964035,16.2426264 26.3555962,16.1412088 C26.4147888,16.0397911 26.4147888,15.9143581 26.3555962,15.8129405 C26.2964035,15.7115229 26.1871889,15.6498333 26.0697728,15.6514938 Z"  stroke="currentColor" stroke-width="0.8" fill-rule="nonzero"></path>
  </g>
</svg>
