<?xml version="1.0" encoding="UTF-8"?>
<svg width="28px" height="24px" viewBox="0 0 28 24" version="1.1" xmlns="http://www.w3.org/2000/svg" xmlns:xlink="http://www.w3.org/1999/xlink">
  <g stroke="none" stroke-width="1" fill-rule="evenodd">
    <g fill-rule="nonzero">
      <path d="M22.1,18.8 L10.7,18.8 C8.9,18.8 7.3,17.7 6.9,15.9 L3.7,4.9 L2.9,2.2 L1.3,1.7 C0.8,1.5 0.7,1.1 0.8,0.7 C1,0.2 1.4,0.1 1.8,0.2 L3.7,0.8 C4,0.8 4.2,1.1 4.2,1.3 L5,3.9 L25.8,5.3 C26.4,5.3 27.2,5.8 27.6,6.3 C28.1,6.9 28.1,7.6 27.9,8.4 L26,15.9 C25.4,17.7 23.8,18.8 22.1,18.8 Z M5.6,5.5 L8.5,15.4 C8.8,16.4 9.8,17.2 10.7,17.2 L22.1,17.2 C23.2,17.2 24.2,16.4 24.3,15.4 L26.2,7.9 C26.2,7.7 26.2,7.4 26,7.3 C25.8,7.2 25.7,7 25.4,7 L5.6,5.5 Z"></path>
      <path d="M10.2,23.6 C8.4,23.6 7,22.2 7,20.4 C7,18.6 8.4,17.2 10.2,17.2 C12,17.2 13.4,18.6 13.4,20.4 C13.4,22.2 12,23.6 10.2,23.6 Z M10.2,18.8 C9.2,18.8 8.6,19.4 8.6,20.4 C8.6,21.4 9.2,22 10.2,22 C11.2,22 11.8,21.4 11.8,20.4 C11.8,19.4 11,18.8 10.2,18.8 Z"></path>
      <path d="M21.9,23.6 C20.1,23.6 18.7,22.2 18.7,20.4 C18.7,18.6 20.1,17.2 21.9,17.2 C23.7,17.2 25.1,18.6 25.1,20.4 C25.1,22.2 23.7,23.6 21.9,23.6 Z M21.9,18.8 C20.9,18.8 20.3,19.4 20.3,20.4 C20.3,21.4 20.9,22 21.9,22 C22.9,22 23.5,21.4 23.5,20.4 C23.5,19.4 22.9,18.8 21.9,18.8 Z"></path>
    </g>
  </g>
</svg>
