<?xml version="1.0" encoding="UTF-8"?>
<svg width="28px" height="25px" viewBox="0 0 28 25" version="1.1" xmlns="http://www.w3.org/2000/svg" xmlns:xlink="http://www.w3.org/1999/xlink">
  <g stroke="none" stroke-width="1" fill-rule="evenodd">
    <path d="M24,17.4 L20.6,17.4 C20.1,17.4 19.8,17.1 19.8,16.6 C19.8,16.1 20.1,15.8 20.6,15.8 L24,15.8 C24.6,15.8 25.3,15.5 25.8,15 C26.3,14.5 26.4,13.9 26.3,13.1 C26.1,12.3 25.3,11.5 24.4,11.3 L23.4,11.1 C22.3,10.9 21.6,9.8 21.8,8.9 L22,7.8 C22,7.5 22,7.3 22,7.2 C22,5.9 21.5,4.8 20.7,4 C19.9,3.2 18.6,2.7 17.5,2.7 C15.9,2.7 14.3,3.8 13.7,5.4 L13.4,6 C13.1,6.8 12.3,7.3 11.3,7.1 L10.5,6.9 C9.1,6.7 7.5,7.7 7,9.1 L6.8,9.7 C6.5,10.5 6,11 5.2,11 L4.4,11.2 C3.8,11.4 3.1,11.7 2.8,12.3 C2.5,12.9 2.3,13.6 2.6,14.2 C2.9,15 3.9,15.6 4.8,15.6 L8,15.6 C8.5,15.6 8.8,15.9 8.8,16.4 C8.8,16.9 8.3,17.2 7.8,17.2 L4.6,17.2 C2.8,17.2 1.4,16.2 0.9,14.6 C0.6,13.5 0.6,12.4 1.2,11.4 C1.8,10.4 2.8,9.8 3.9,9.6 L4.7,9.4 C4.9,9.4 5,9.2 5,9.1 L5.2,8.5 C5.8,6.6 7.8,5.1 9.8,5.1 C10,5.1 10.1,5.1 10.3,5.1 L11.1,5.3 C11.3,5.3 11.4,5.3 11.6,5.1 L11.9,4.5 C12.9,2.4 14.9,1 17.2,0.8 C18.8,0.8 20.4,1.3 21.7,2.4 C22.8,3.5 23.6,5.1 23.6,6.7 C23.6,7 23.6,7.3 23.4,7.7 L23.2,8.8 C23.2,9 23.4,9.3 23.5,9.3 L24.5,9.5 C26.1,9.8 27.4,10.9 27.7,12.5 C27.9,13.6 27.7,14.7 26.9,15.7 C26.3,16.9 25.1,17.4 24,17.4 Z"></path>
    <g transform="translate(10.000000, 15.000000)">
      <path d="M4.1,9.7 C3.9,9.7 3.6,9.5 3.5,9.5 L1.1,6.9 C0.8,6.6 0.8,6.1 1.1,5.8 C1.4,5.5 1.9,5.5 2.2,5.8 L4.1,7.7 L6,5.8 C6.3,5.5 6.8,5.5 7.1,5.8 C7.4,6.1 7.4,6.6 7.1,6.9 L4.7,9.3 C4.4,9.6 4.3,9.7 4.1,9.7 Z"></path>
      <path d="M4.1,9.7 C3.6,9.7 3.3,9.4 3.3,8.9 L3.3,0.9 C3.3,0.4 3.6,0.1 4.1,0.1 C4.6,0.1 4.9,0.4 4.9,0.9 L4.9,8.9 C4.9,9.2 4.4,9.7 4.1,9.7 Z"></path>
    </g>
  </g>
</svg>
