<?xml version="1.0" encoding="UTF-8"?>
<svg width="28px" height="28px" viewBox="0 0 28 28" version="1.1" xmlns="http://www.w3.org/2000/svg" xmlns:xlink="http://www.w3.org/1999/xlink">
  <g stroke="none" stroke-width="1" fill-rule="evenodd">
    <path d="M14.3,27.5 C6.8,27.5 0.7,21.4 0.7,13.9 C0.7,6.4 6.8,0.3 14.3,0.3 C21.8,0.3 27.9,6.4 27.9,13.9 C27.9,21.4 21.9,27.5 14.3,27.5 Z M14.3,1.9 C7.7,1.9 2.3,7.3 2.3,13.9 C2.3,20.5 7.7,25.9 14.3,25.9 C20.9,25.9 26.3,20.5 26.3,13.9 C26.3,7.3 20.9,1.9 14.3,1.9 Z" fill-rule="nonzero"></path>
    <path d="M17.7,18 C17.5,18 17.2,18 17.1,17.8 L10.4,11.1 C10.1,10.8 10.1,10.3 10.4,10 C10.7,9.7 11.2,9.7 11.5,10 L18.2,16.7 C18.5,17 18.5,17.5 18.2,17.8 C18,17.9 17.9,18 17.7,18 Z"></path>
    <path d="M11,18 C10.8,18 10.5,18 10.4,17.8 C10.1,17.5 10.1,17 10.4,16.7 L17.1,10 C17.4,9.7 17.9,9.7 18.2,10 C18.5,10.3 18.5,10.8 18.2,11.1 L11.5,17.8 C11.5,17.9 11.1,18 11,18 Z"></path>
  </g>
</svg>
