<?xml version="1.0" encoding="UTF-8"?>
<svg width="28px" height="25px" viewBox="0 0 28 25" version="1.1" xmlns="http://www.w3.org/2000/svg" xmlns:xlink="http://www.w3.org/1999/xlink">
  <g stroke="none" stroke-width="1" fill-rule="evenodd">
    <path d="M26.1,13.7 L2.7,13.7 C1.6,13.7 0.8,12.7 0.8,11.8 L0.8,9.4 C0.8,8.3 1.8,7.5 2.7,7.5 L25.9,7.5 C27,7.5 27.8,8.5 27.8,9.4 L27.8,11.8 C28,12.8 27,13.7 26.1,13.7 Z M2.7,8.9 C2.5,8.9 2.4,9.1 2.4,9.2 L2.4,11.6 C2.4,11.8 2.6,11.9 2.7,11.9 L25.9,11.9 C26.1,11.9 26.2,11.7 26.2,11.6 L26.2,9.2 C26.2,9 26,8.9 25.9,8.9 L2.7,8.9 Z" fill-rule="nonzero"></path>
    <path d="M20.8,24.9 L8,24.9 C5.8,24.9 4,23.1 4,20.9 L4,12.9 L5.6,12.9 L5.6,20.9 C5.6,22.2 6.7,23.3 8,23.3 L20.8,23.3 C22.1,23.3 23.2,22.2 23.2,20.9 L23.2,12.9 L24.8,12.9 L24.8,20.9 C24.8,23.2 23,24.9 20.8,24.9 Z"></path>
    <rect x="13.6" y="8.1" width="1.6" height="16"></rect>
    <g transform="translate(6.000000, 0.000000)" fill-rule="nonzero">
      <path d="M9.2,8.9 C8.6,8.9 8.1,8.6 7.9,8.4 C7.3,7.6 7.6,6.5 8.9,4.6 C9.7,3.3 10.8,2 11.3,1.7 C12.6,0.6 14.5,0.9 15.6,2 C16.1,2.6 16.4,3.4 16.2,4.2 C16,5 15.7,5.8 15.1,6.3 C14.5,6.8 11,8.9 9.2,8.9 Z M13.2,2.5 C12.9,2.5 12.6,2.7 12.2,2.8 C11.2,3.6 9.3,6.3 9.2,7.3 C10.5,7.3 13.4,5.7 14.2,5.1 C14.5,4.8 14.7,4.5 14.7,4.1 C14.7,3.8 14.5,3.3 14.4,3 C14,2.7 13.7,2.5 13.2,2.5 Z"></path>
      <path d="M7.6,8.9 C5.8,8.9 2.3,6.8 1.5,6.2 C0.9,5.7 0.5,4.9 0.4,4.1 C0.2,3.3 0.6,2.5 1,1.9 C2,0.6 4,0.5 5.3,1.6 C5.8,2.1 6.9,3.2 7.7,4.5 C9,6.4 9.3,7.5 8.7,8.3 C8.7,8.6 8.2,8.9 7.6,8.9 Z M3.6,2.5 C3.1,2.5 2.8,2.7 2.5,3 C2.2,3.3 2.2,3.6 2.2,4.1 C2.2,4.4 2.4,4.9 2.7,5.1 C3.5,5.7 6.4,7.3 7.7,7.3 C7.5,6.3 5.6,3.6 4.7,2.8 C4.2,2.7 3.9,2.5 3.6,2.5 Z"></path>
    </g>
  </g>
</svg>
