<?xml version="1.0" encoding="UTF-8"?>
<svg width="29px" height="28px" viewBox="0 0 29 28" version="1.1" xmlns="http://www.w3.org/2000/svg" xmlns:xlink="http://www.w3.org/1999/xlink">
  <g stroke="none" stroke-width="1" fill-rule="evenodd">
    <g>
      <path d="M16.1,25.3 C14.8,25.3 14,24.8 13.9,24.8 C13.8,24.8 13.7,24.6 13.6,24.5 C13.6,24.3 13,23.5 13.1,22.1 C11.5,21.9 10.1,21 8.6,19.7 C7.2,18.3 6.4,16.8 6.2,15.2 C4.8,15.2 3.8,14.7 3.8,14.7 C3.6,14.7 3.6,14.5 3.5,14.4 C3.3,14.2 1.3,10.7 6.2,5.8 C8.3,3.7 10.5,3.4 12.3,4.8 C12.6,4.5 12.8,4.3 12.9,4.3 C17.1,0.9 20.6,0.3 22.8,0.3 C25.4,0.3 26.8,1.3 26.8,1.3 C27,1.3 27,1.5 27.1,1.6 C27.3,1.8 30.5,7.4 23.9,15.5 C23.7,15.7 23.6,15.8 23.4,16.1 C24.8,18 24.5,20.1 22.4,22.2 C19.8,24.7 17.5,25.3 16.1,25.3 Z M14.8,23.4 C15,23.6 15.4,23.6 16.1,23.6 C17.2,23.6 19.1,23.1 21.4,20.9 C23.5,18.8 22.7,17.4 21.9,16.6 C21.4,16.1 21.7,15.5 22.4,15 C22.6,14.8 22.7,14.7 22.7,14.7 C22.7,14.7 22.7,14.5 22.9,14.5 C28.2,7.9 26.6,3.5 26.1,2.5 C25.8,2.3 24.7,1.9 23.1,1.9 C21.2,1.9 18,2.5 14.1,5.7 C14.1,5.7 13.9,5.7 13.9,5.9 C13.7,5.9 13.6,6.1 13.6,6.2 C13,6.7 12.8,6.8 12.5,6.8 C12.3,6.8 12,6.6 11.9,6.6 C10.6,5.3 9.2,5.5 7.6,7.1 C4.2,10.5 4.7,12.9 5,13.5 C5.3,13.7 6.1,13.8 7.1,13.7 C7.3,13.7 7.6,13.7 7.7,13.9 C7.9,14.1 8,14.2 8,14.5 C8,15.9 8.6,17.4 10.1,18.7 C11.4,20 12.8,20.8 14.3,20.8 C14.5,20.8 14.8,21 14.9,21.1 C15.1,21.3 15.1,21.6 15.1,21.7 C14.5,22.4 14.6,23.1 14.8,23.4 Z" fill-rule="nonzero"></path>
      <path d="M2.5,26.4 C2.3,26.4 2,26.4 1.9,26.2 C1.6,25.9 1.6,25.4 1.9,25.1 L5.9,21.1 C6.2,20.8 6.7,20.8 7,21.1 C7.3,21.4 7.3,21.9 7,22.2 L3.2,26 C3,26.3 2.8,26.4 2.5,26.4 Z"></path>
      <path d="M1.5,21.3 C1.3,21.3 1,21.3 0.9,21.1 C0.6,20.8 0.6,20.3 0.9,20 L3,17.9 C3.3,17.6 3.8,17.6 4.1,17.9 C4.4,18.2 4.4,18.7 4.1,19 L2,21.1 C2,21.3 1.7,21.3 1.5,21.3 Z"></path>
      <path d="M7.6,27.4 C7.4,27.4 7.1,27.4 7,27.2 C6.7,26.9 6.7,26.4 7,26.1 L9.1,24 C9.4,23.7 9.9,23.7 10.2,24 C10.5,24.3 10.5,24.8 10.2,25.1 L8.1,27.2 C7.9,27.4 7.8,27.4 7.6,27.4 Z"></path>
      <path d="M17.7,14.1 C16.7,14.1 15.8,13.8 15.1,13 C13.7,11.6 13.7,9.3 15.1,7.9 C16.5,6.5 18.9,6.5 20.2,7.9 C20.8,8.5 21.3,9.5 21.3,10.5 C21.3,11.5 21,12.4 20.2,13.1 C19.6,13.6 18.6,14.1 17.7,14.1 Z M17.7,8.4 C17.2,8.4 16.6,8.6 16.3,9 C15.5,9.8 15.5,11.1 16.3,11.9 C17.1,12.7 18.4,12.7 19.2,11.9 C19.5,11.6 19.8,10.9 19.8,10.5 C19.8,10 19.6,9.4 19.2,9.1 C18.8,8.8 18.3,8.4 17.7,8.4 Z" fill-rule="nonzero"></path>
    </g>
  </g>
</svg>
