<?xml version="1.0" encoding="UTF-8"?>
<svg width="28px" height="26px" viewBox="0 0 28 26" version="1.1" xmlns="http://www.w3.org/2000/svg" xmlns:xlink="http://www.w3.org/1999/xlink">
  <g stroke="none" stroke-width="1" fill-rule="evenodd">
    <path d="M23.9,25.7 L4.7,25.7 C2.5,25.7 0.7,23.9 0.7,21.7 L0.7,8.9 C0.7,6.7 2.5,4.9 4.7,4.9 L23.9,4.9 C26.1,4.9 27.9,6.7 27.9,8.9 L27.9,21.7 C27.9,23.9 26.2,25.7 23.9,25.7 Z M4.7,6.5 C3.4,6.5 2.3,7.6 2.3,8.9 L2.3,21.7 C2.3,23 3.4,24.1 4.7,24.1 L23.9,24.1 C25.2,24.1 26.3,23 26.3,21.7 L26.3,8.9 C26.3,7.6 25.2,6.5 23.9,6.5 L4.7,6.5 Z" fill-rule="nonzero"></path>
    <rect x="1.5" y="12.9" width="25.6" height="1.6"></rect>
    <g transform="translate(8.000000, 11.000000)">
      <path d="M1.5,5.1 C1,5.1 0.7,4.8 0.7,4.3 L0.7,1.1 C0.7,0.6 1,0.3 1.5,0.3 C2,0.3 2.3,0.6 2.3,1.1 L2.3,4.3 C2.3,4.8 2,5.1 1.5,5.1 Z"></path>
      <path d="M11.1,5.1 C10.6,5.1 10.3,4.8 10.3,4.3 L10.3,1.1 C10.3,0.6 10.6,0.3 11.1,0.3 C11.6,0.3 11.9,0.6 11.9,1.1 L11.9,4.3 C11.9,4.8 11.6,5.1 11.1,5.1 Z"></path>
    </g>
    <path d="M8.7,5.7 L8.7,3 C8.7,1.4 10,0.1 11.6,0.1 L17.2,0.1 C18.8,0.1 20.1,1.4 20.1,3 L20.1,5.7 L18.5,5.7 L18.5,3 C18.5,2.4 18,1.7 17.2,1.7 L11.6,1.7 C11,1.7 10.3,2.2 10.3,3 L10.3,5.7 L8.7,5.7 Z"></path>
  </g>
</svg>
