<?xml version="1.0" encoding="UTF-8"?>
<svg width="28px" height="22px" viewBox="0 0 28 22" version="1.1" xmlns="http://www.w3.org/2000/svg" xmlns:xlink="http://www.w3.org/1999/xlink">
  <g stroke="none" stroke-width="1" fill-rule="evenodd">
    <path d="M25.5,21.1 C24.9,21.1 24.4,20.9 23.9,20.5 L21.3,18.3 L6.3,18.3 C3.3,18.3 0.7,15.7 0.7,12.7 L0.7,6.3 C0.7,3.3 3.3,0.7 6.3,0.7 L22.3,0.7 C25.3,0.7 27.9,3.3 27.9,6.3 L27.9,18.8 C27.9,20 26.8,21.1 25.5,21.1 Z M6.3,2.2 C4.1,2.2 2.3,4 2.3,6.2 L2.3,12.6 C2.3,14.8 4.1,16.6 6.3,16.6 L21.7,16.6 C21.9,16.6 22,16.6 22.2,16.8 L25.1,19.4 C25.6,19.9 26.4,19.6 26.4,18.8 L26.4,6.3 C26.4,4.1 24.6,2.3 22.4,2.3 C22.3,2.2 6.3,2.2 6.3,2.2 Z" fill-rule="nonzero"></path>
    <path d="M7.9,10.9 C7.6,10.9 7.3,10.7 7.1,10.6 C6.9,10.4 6.8,10.1 6.8,9.8 C6.8,9.5 7,9.2 7.1,9 C7.6,8.5 8.4,8.5 8.9,9 C9.1,9.2 9.2,9.5 9.2,9.8 C9.2,10.1 9,10.4 8.9,10.6 C8.6,10.7 8.3,10.9 7.9,10.9 Z"></path>
    <path d="M14.3,10.9 C14,10.9 13.7,10.7 13.5,10.6 C13.3,10.4 13.2,10.1 13.2,9.8 C13.2,9.5 13.4,9.2 13.5,9 C14,8.5 14.8,8.5 15.3,9 C15.5,9.2 15.6,9.5 15.6,9.8 C15.6,10.1 15.4,10.4 15.3,10.6 C15,10.7 14.7,10.9 14.3,10.9 Z"></path>
    <path d="M20.7,10.9 C20.4,10.9 20.1,10.7 19.9,10.6 C19.7,10.4 19.6,10.1 19.6,9.8 C19.6,9.5 19.8,9.2 19.9,9 C20.4,8.5 21.2,8.5 21.7,9 C21.9,9.2 22,9.5 22,9.8 C22,10.1 21.8,10.4 21.7,10.6 C21.4,10.7 21.1,10.9 20.7,10.9 Z"></path>
  </g>
</svg>
