<?xml version="1.0" encoding="UTF-8"?>
<svg width="28px" height="28px" viewBox="0 0 28 28" version="1.1" xmlns="http://www.w3.org/2000/svg" xmlns:xlink="http://www.w3.org/1999/xlink">
  <g stroke="none" stroke-width="1" fill-rule="evenodd">
    <g transform="translate(10.000000, 6.000000)">
      <path d="M4.3,10.3 C3.8,10.3 3.5,10 3.5,9.5 C3.5,8.1 4.1,6.6 5.4,5.7 C6,5.2 6.2,4.6 6,3.8 C5.8,3.2 5.4,2.5 4.6,2.4 C4,2.2 3.5,2.4 3,2.7 C2.5,3 2.4,3.7 2.4,4.1 C2.4,4.6 2.1,4.9 1.6,4.9 C1.1,4.9 0.8,4.6 0.8,4.1 C0.8,3 1.3,2 2.1,1.4 C2.9,0.8 4,0.4 5,0.8 C6.3,1.1 7.4,2.1 7.7,3.5 C8,4.8 7.5,6.1 6.4,7 C5.6,7.6 5,8.6 5,9.6 C5.1,10 4.8,10.3 4.3,10.3 Z"></path>
      <path d="M4.3,15.1 C4.1,15.1 3.8,14.9 3.7,14.8 C3.5,14.6 3.5,14.5 3.5,14.3 C3.5,14.1 3.5,13.8 3.7,13.7 C4,13.4 4.5,13.4 4.8,13.7 C5,13.9 5.1,14 5.1,14.3 C5.1,14.5 4.9,14.8 4.8,14.8 C4.8,14.9 4.5,15.1 4.3,15.1 Z"></path>
    </g>
    <path d="M14.3,27.5 C6.8,27.5 0.7,21.4 0.7,13.9 C0.7,6.4 6.8,0.3 14.3,0.3 C21.8,0.3 27.9,6.4 27.9,13.9 C27.9,21.4 21.9,27.5 14.3,27.5 Z M14.3,1.9 C7.7,1.9 2.3,7.3 2.3,13.9 C2.3,20.5 7.7,25.9 14.3,25.9 C20.9,25.9 26.3,20.5 26.3,13.9 C26.3,7.3 20.9,1.9 14.3,1.9 Z" fill-rule="nonzero"></path>
  </g>
</svg>
