<?xml version="1.0" encoding="UTF-8"?>
<svg width="28px" height="28px" viewBox="0 0 28 28" version="1.1" xmlns="http://www.w3.org/2000/svg" xmlns:xlink="http://www.w3.org/1999/xlink">
  <g stroke="none" stroke-width="1" fill-rule="evenodd">
    <path d="M21.5104667,20.5633231 C23.4352542,18.414468 24.4992975,15.6308548 24.4986583,12.7460004 C24.4986583,6.26936201 19.2293026,1.00000633 12.7526642,1.00000633 C6.26935568,0.993336255 1,6.26269194 1,12.7393304 C1,19.2159688 6.26935568,24.4853245 12.7459941,24.4853245 C15.6316469,24.4903004 18.4167596,23.425684 20.5633167,21.4971329 L25.8726928,26.806509 C25.9978061,26.9325129 26.168716,27.0023212 26.3462678,26.9999411 C26.5232191,26.9992246 26.6929904,26.9298814 26.8198428,26.806509 C26.9447417,26.6818911 27.0149328,26.5127042 27.0149328,26.3362691 C27.0149328,26.1598339 26.9447417,25.990647 26.8198428,25.8660291 L21.5104667,20.5633231 Z M2.3340141,12.7393304 C2.3340141,6.99639969 7.00306344,2.32735035 12.7459941,2.32735035 C18.4889248,2.32735035 23.1579741,6.99639969 23.1579741,12.7393304 C23.1579741,18.4822611 18.4889248,23.1513104 12.7459941,23.1513104 C7.00306344,23.1579805 2.3340141,18.4822611 2.3340141,12.7393304 Z"  stroke="currentColor" stroke-width="0.5" fill-rule="nonzero"></path>
  </g>
</svg>
