<?xml version="1.0" encoding="UTF-8"?>
<svg width="25px" height="21px" viewBox="0 0 25 21" version="1.1" xmlns="http://www.w3.org/2000/svg" xmlns:xlink="http://www.w3.org/1999/xlink">
  <g stroke="none" stroke-width="1" fill-rule="evenodd">
    <path d="M12.4330448,20.1 C12.2330448,20.1 12.1330448,20.1 11.9330448,20.1 C10.5330448,19.8 5.33304485,18.2 1.33304485,11.9 C-0.566955152,9 -0.466955152,5.2 1.83304485,2.6 C3.23304485,1 5.33304485,0 7.43304485,0 C9.23304485,0 10.9330448,0.6 12.4330448,1.8 C13.8330448,0.7 15.4330448,0 17.4330448,0 C19.6330448,0 21.6330448,1 23.0330448,2.6 C25.2330448,5 25.4330448,8.8 23.5330448,11.9 C19.5330448,18.1 14.4330448,19.7 12.9330448,20.1 C12.8330448,19.9 12.6330448,20.1 12.4330448,20.1 Z M7.53304485,1.5 C5.73304485,1.5 4.13304485,2.3 3.03304485,3.6 C1.23304485,5.5 1.13304485,8.6 2.73304485,11 C6.43304485,16.8 11.0330448,18.2 12.3330448,18.5 L12.5330448,18.5 L12.7330448,18.5 C14.0330448,18.2 18.6330448,16.7 22.3330448,11 C23.7330448,8.6 23.7330448,5.6 22.0330448,3.6 C20.9330448,2.3 19.3330448,1.5 17.5330448,1.5 C15.9330448,1.5 14.5330448,2.1 13.3330448,3.3 L13.1330448,3.5 C12.8330448,3.8 12.3330448,3.8 12.0330448,3.5 L11.8330448,3.3 C10.7330448,2.2 9.13304485,1.5 7.53304485,1.5 Z" fill-rule="nonzero"></path>
  </g>
</svg>
