<?xml version="1.0" encoding="UTF-8"?>
<svg width="28px" height="28px" viewBox="0 0 28 28" version="1.1" xmlns="http://www.w3.org/2000/svg" xmlns:xlink="http://www.w3.org/1999/xlink">
  <g stroke="none" stroke-width="1" fill-rule="evenodd">
    <path d="M12.2,27.4 C11.7,27.4 11.2,27.2 10.9,26.9 L1.3,17.3 C1,17 0.8,16.5 0.8,16 C0.8,15.5 1,15 1.3,14.7 L15.2,0.8 C15.5,0.5 16,0.3 16.5,0.3 L26.1,0.3 C27.1,0.3 27.9,1.1 27.9,2.1 L27.9,11.7 C27.9,12.2 27.7,12.7 27.4,13 L13.5,26.9 C13,27.2 12.5,27.4 12.2,27.4 Z M16.3,1.8 L2.2,15.9 C2.2,15.9 2.2,16.1 2.2,16.2 L12,26 L12.2,26 L26.1,12.1 L26.1,2.3 C26.1,2.1 26.1,2.1 25.9,2.1 L16.3,2.1 L16.3,1.8 Z" fill-rule="nonzero"></path>
    <path d="M21.5,8.2 C21,8.2 20.7,8 20.4,7.7 C19.8,7.1 19.8,6.1 20.4,5.5 C21,4.9 22,4.9 22.6,5.5 C23.2,6.1 23.2,7.1 22.6,7.7 C22.3,8 21.9,8.2 21.5,8.2 Z"></path>
  </g>
</svg>
