<?xml version="1.0" encoding="UTF-8"?>
<svg width="26px" height="26px" viewBox="0 0 26 26" version="1.1" xmlns="http://www.w3.org/2000/svg" xmlns:xlink="http://www.w3.org/1999/xlink">
  <g stroke="none" stroke-width="1" fill-rule="evenodd">
    <path d="M17.8766407,25.7 C17.2766407,25.7 16.7766407,25.4 16.4766407,24.7 L13.0766407,16.5 L9.27664068,19.9 L9.87664068,21.8 C9.87664068,22 9.87664068,22 9.87664068,22.1 C9.87664068,23.1 9.07664068,23.7 8.07664068,23.7 C7.57664068,23.7 7.07664068,23.5 6.77664068,23.2 L2.57664068,19 C2.07664068,18.5 1.97664068,17.7 2.07664068,17.1 C2.37664068,16.5 2.87664068,16 3.67664068,16 C3.87664068,16 3.87664068,16 3.97664068,16 L5.87664068,16.6 L9.27664068,12.8 L1.07664068,9.4 C0.576640683,9.2 0.276640683,8.8 0.076640683,8.3 C-0.123359317,7.8 0.076640683,7.3 0.576640683,6.9 L1.57664068,5.9 C1.87664068,5.6 2.17664068,5.4 2.67664068,5.4 L14.9766407,6.7 L18.9766407,2.7 C20.5766407,1.1 22.7766407,0.1 25.0766407,0 C25.2766407,0 25.5766407,0 25.6766407,0.2 C25.8766407,0.4 25.9766407,0.5 25.8766407,0.8 C25.6766407,3 24.7766407,5.3 23.1766407,6.9 L19.1766407,10.9 L20.4766407,23.1 C20.4766407,23.6 20.2766407,24.1 19.9766407,24.4 L18.9766407,25.4 C18.6766407,25.5 18.1766407,25.7 17.8766407,25.7 Z M13.0766407,15 C13.6766407,15 14.3766407,15.3 14.4766407,16 L17.8766407,24 L18.6766407,23.2 L17.3766407,11.2 C17.3766407,10.7 17.5766407,10.2 17.8766407,9.9 L21.8766407,5.9 C22.9766407,4.8 23.7766407,3.3 24.0766407,1.9 C22.4766407,2.2 21.1766407,3 20.0766407,4.1 L16.0766407,8.1 C15.7766407,8.4 15.4766407,8.6 14.9766407,8.6 L2.67664068,7.3 L1.87664068,8.3 L10.0766407,11.5 C10.5766407,11.7 10.8766407,12.1 11.0766407,12.6 C11.2766407,13.1 11.0766407,13.6 10.7766407,14 L7.07664068,18.3 C6.87664068,18.6 6.57664068,18.6 6.27664068,18.6 L3.87664068,17.6 C3.87664068,17.6 3.87664068,17.6 3.87664068,17.8 L3.87664068,18 L8.07664068,22.2 C8.27664068,22.2 8.27664068,22.2 8.37664068,22.2 L7.77664068,20 C7.57664068,19.7 7.77664068,19.4 8.07664068,19.2 L12.3766407,15.5 C12.2766407,15.1 12.6766407,15 13.0766407,15 Z" fill-rule="nonzero"></path>
  </g>
</svg>
