<?xml version="1.0" encoding="UTF-8"?>
<svg width="30px" height="21px" viewBox="0 0 30 21" version="1.1" xmlns="http://www.w3.org/2000/svg" xmlns:xlink="http://www.w3.org/1999/xlink">
  <g fill-rule="evenodd">
    <path d="M15.0155687,1.02598032 C11.1544143,1.02597373 9.27497612,0.844369023 7.95841936,1.44153327 C7.30014261,1.74011209 6.81850028,2.25829657 6.38225702,3.01488623 C5.97429051,3.72243306 5.57397841,4.71670648 5.05014399,5.97649567 L2.41642522,5.97649567 C1.85978538,5.97649567 1.41053514,6.17305897 1.17583002,6.53179827 C0.947236068,6.8917498 0.922101184,7.39092063 1.21650491,7.8480684 L2.70114941,9.35972253 C1.81001375,12.3534101 2.7638922,15.8918196 5.31453236,17.6378337 L5.31453236,19.1186384 C5.34526725,19.7550949 5.78877423,20.0988361 6.27040028,20.1058196 L7.52116355,20.1058196 C7.92820215,20.1091137 8.21070588,19.9112361 8.38549425,19.6327843 C8.50061007,19.4023278 8.52789053,19.117189 8.53802588,18.7895561 L21.5134181,18.7895561 C21.5458786,19.1180784 21.5654623,19.4584596 21.6862855,19.6636502 C21.8527683,19.9463843 22.1478818,20.1058196 22.41844,20.1058196 L23.6997102,20.1058196 C24.3519832,20.1110902 24.6494149,19.6482008 24.6759139,19.1186384 L24.6759139,17.6378337 C27.2157256,15.889349 27.8621447,12.3505442 26.9740628,9.38029101 L28.7536028,7.86863687 C29.1274191,7.37880486 29.0153865,6.85505992 28.8146168,6.53179827 C28.5799116,6.17305897 28.1306614,5.97649567 27.5740247,5.97649567 L25.1945228,5.97649567 C24.6293916,4.71334648 24.1867572,3.71734694 23.750553,3.00460528 C23.2858735,2.24533092 22.7881572,1.7336688 22.1133767,1.43124903 C20.6567581,0.832852788 18.9364641,1.05506408 15.0155687,1.02598032 Z M21.8490046,2.0276688 C22.3887632,2.26957233 22.7751828,2.65770504 23.2014535,3.35422317 C23.6129069,4.02651965 24.0459497,4.99886084 24.6352553,6.31583262 L22.1439,8.29023782 C21.9241944,6.27769662 20.5473855,4.9481446 18.9000511,4.9481446 C16.6927525,4.99324107 15.6785859,6.86942227 15.6562022,8.59873853 L8.72108077,8.58846088 L5.68060958,6.13073614 C6.18971144,4.90796295 6.58570633,3.97871541 6.95170866,3.34394552 C7.35041564,2.65245751 7.70369099,2.2837008 8.22281099,2.04824057 C9.26104775,1.57732009 11.136198,1.68409892 15.0155687,1.6841055 C18.9364641,1.6986655 20.7343474,1.59685091 21.8490046,2.02765892 L21.8490046,2.0276688 Z M18.9000511,5.60629614 C20.2744181,5.60629614 21.4238181,6.70194933 21.5134344,8.60903923 L16.3070069,8.59876158 C16.3117278,7.00260674 17.4085204,5.65868579 18.9000511,5.60628626 L18.9000511,5.60629614 Z M2.41642522,6.63463074 L5.25351841,6.63463074 C6.30633144,7.46902087 7.3573961,8.32711217 8.40583332,9.17462277 C8.46302495,9.22082936 8.53600077,9.24666183 8.60920774,9.24660583 L21.8489883,9.26716112 C21.922192,9.26721712 21.9951711,9.24140112 22.0523627,9.19517477 L25.2860437,6.63461756 L27.5740247,6.63461756 C27.9849344,6.63461756 28.1776851,6.7677625 28.2655009,6.90198462 C28.346727,7.02613992 28.3603656,7.20302086 28.2655009,7.42643781 L26.3944433,9.010075 C26.2930181,9.09430888 26.2506437,9.24429006 26.2927544,9.36999359 C27.2219605,12.2104454 26.5964079,15.6552031 24.1776442,17.1956313 C24.0821674,17.2561113 24.022013,17.3696596 24.0251125,17.4835702 L24.0251125,19.1186055 C23.9820544,19.3268925 23.8668539,19.3671796 23.6997102,19.4476878 L22.41844,19.4476878 C22.3664609,19.4476878 22.3209772,19.4522996 22.2455725,19.3242902 C22.1701646,19.1962149 22.0930376,18.9171702 22.0930376,18.4604737 C22.0930214,18.2881913 21.938012,18.1314243 21.7676386,18.1314243 L8.22279472,18.1314243 C8.05242123,18.1314243 7.89740867,18.2881913 7.89739239,18.4604737 C7.89739239,18.9410196 7.85519704,19.2358102 7.80587146,19.3345678 C7.73945936,19.4444267 7.61292215,19.4269349 7.52114727,19.4476878 C7.10870726,19.4476878 6.68627191,19.4476878 6.270384,19.4476878 C6.0785547,19.4028549 6.0435547,19.2768549 5.96532074,19.1186055 L5.96532074,17.4835702 C5.96857656,17.3696596 5.9082626,17.2561113 5.81278586,17.1956313 C3.38367872,15.6486148 2.4498722,12.1897583 3.37227686,9.36999359 C3.41059453,9.25358606 3.37771407,9.11638277 3.29092383,9.03064347 L1.73509747,7.43672204 C1.635017,7.20810039 1.64238817,7.02811968 1.72493933,6.90198462 C1.81275515,6.7677625 2.00550568,6.63461756 2.41641871,6.63461756 L2.41642522,6.63463074 Z M5.61288492,11.5500736 C5.62255468,12.0080548 5.68314864,12.4083889 5.78575561,12.8251936 C5.84555515,13.0586807 5.95363515,13.0952125 6.14166166,13.1851089 C7.23369423,13.3170383 8.33786773,13.4270289 9.28380541,13.5244689 C9.5418417,13.5244689 9.66844728,13.3757395 9.77190728,13.2056642 C9.87537054,13.0355889 9.93543705,12.8094807 9.93461007,12.5372548 C9.93467193,12.3926101 9.8290403,12.2546525 9.69055751,12.218483 L6.01962073,11.2312689 C5.78141236,11.1916407 5.60566352,11.3632971 5.61288492,11.5500736 Z M23.7979549,11.2312689 L20.1270181,12.218483 C19.9885386,12.2546525 19.8829069,12.3926101 19.8829688,12.5372548 C19.881992,12.8094807 19.9523762,13.0355889 20.0558362,13.2056642 C20.1592995,13.3757395 20.2757339,13.5244689 20.5337702,13.5244689 C21.5674228,13.4234383 22.6094428,13.3063983 23.6454232,13.1953866 C23.8910484,13.1478854 23.9493274,13.0204689 24.0419911,12.8251936 C24.1499898,12.4102007 24.1813042,11.9697442 24.2046907,11.5500736 C24.1981791,11.273236 23.9974744,11.1710854 23.7979549,11.2312689 Z" stroke="currentColor" stroke-width="0.5" fill-rule="nonzero"></path>
  </g>
</svg>
