<?xml version="1.0" encoding="UTF-8"?>
<svg width="21px" height="30px" viewBox="0 0 21 30" version="1.1" xmlns="http://www.w3.org/2000/svg" xmlns:xlink="http://www.w3.org/1999/xlink">
  <g stroke="none" stroke-width="1" fill-rule="evenodd">
    <g fill-rule="nonzero">
      <path d="M10.3,29.3 C9.5,29.3 8.7,28.8 8.2,28 L1.5,16.5 C-1.4,11.5 0.1,5 4.9,2.1 C6.5,1.1 8.4,0.5 10.3,0.5 C14,0.5 17.5,2.4 19.3,5.8 C21.1,9 21.2,12.8 19.3,16 C19.3,16 19.3,16 19.3,16.2 L12.4,28.2 C11.9,28.8 11.1,29.3 10.3,29.3 Z M10.3,2.1 C8.7,2.1 7.1,2.6 5.7,3.4 C1.7,5.8 0.4,11.4 3,15.6 L9.7,27.3 C9.9,27.8 10.2,27.8 10.3,27.8 C10.4,27.8 10.8,27.8 10.9,27.3 L17.8,15.5 C17.8,15.5 17.8,15.5 17.8,15.3 C19.4,12.6 19.4,9.2 17.8,6.5 C16.4,3.8 13.5,2.1 10.3,2.1 Z"></path>
      <path d="M10.3,14.9 C8.1,14.9 6.3,13.1 6.3,10.9 C6.3,8.7 8.1,6.9 10.3,6.9 C12.5,6.9 14.3,8.7 14.3,10.9 C14.3,13.1 12.5,14.9 10.3,14.9 Z M10.3,8.5 C9,8.5 7.9,9.6 7.9,10.9 C7.9,12.2 9,13.3 10.3,13.3 C11.6,13.3 12.7,12.2 12.7,10.9 C12.7,9.6 11.6,8.5 10.3,8.5 Z"></path>
    </g>
  </g>
</svg>
