<?xml version="1.0" encoding="UTF-8"?>
<svg width="27px" height="20px" viewBox="0 0 27 20" version="1.1" xmlns="http://www.w3.org/2000/svg" xmlns:xlink="http://www.w3.org/1999/xlink">
  <g stroke="none" stroke-width="1" fill-rule="evenodd">
    <path d="M21.7,19.6 L4.7,19.6 C2.3,19.6 0.4,17.7 0.4,15.3 L0.4,4.6 C0.4,2.2 2.3,0.3 4.7,0.3 L21.8,0.3 C24.2,0.3 26.1,2.2 26.1,4.6 L26.1,15.3 C26.1,17.6 24.1,19.6 21.7,19.6 Z M4.8,2 C3.4,2 2.1,3.3 2.1,4.7 L2.1,15.4 C2.1,16.8 3.4,18.1 4.8,18.1 L21.9,18.1 C23.3,18.1 24.6,16.8 24.6,15.4 L24.6,4.7 C24.6,3.3 23.3,2 21.9,2 C21.9,2 4.8,2 4.8,2 Z" fill-rule="nonzero"></path>
    <path d="M25.7,5.8 L15.8,11.6 C15.2,12.1 14.2,12.2 13.2,12.2 C12.2,12.2 11.4,12 10.6,11.6 L0.7,5.8 L1.5,4.4 L11.4,10.2 C12.4,10.7 14,10.7 14.8,10.2 L24.7,4.4 L25.7,5.8 Z"></path>
    <rect transform="translate(5.072395, 13.481785) rotate(-140.779127) translate(-5.072395, -13.481785) " x="4.27240965" y="8.03188479" width="1.5999707" height="10.8998004"></rect>
    <rect transform="translate(21.471480, 13.595070) rotate(-129.228935) translate(-21.471480, -13.595070) " x="16.0216573" y="12.795096" width="10.8996453" height="1.59994794"></rect>
  </g>
</svg>
