<?xml version="1.0" encoding="UTF-8"?>
<svg width="22px" height="26px" viewBox="0 0 22 26" version="1.1" xmlns="http://www.w3.org/2000/svg" xmlns:xlink="http://www.w3.org/1999/xlink">
  <g stroke="none" stroke-width="1" fill-rule="evenodd">
    <path d="M11.3,14.6 C7.8,14.6 4.9,11.4 4.9,7.4 C4.9,3.4 7.8,0.2 11.3,0.2 C14.8,0.2 17.7,3.4 17.7,7.4 C17.7,11.4 14.8,14.6 11.3,14.6 Z M11.3,1.8 C8.6,1.8 6.5,4.4 6.5,7.4 C6.5,10.4 8.6,13 11.3,13 C14,13 16.1,10.4 16.1,7.4 C16.1,4.4 14,1.8 11.3,1.8 Z" fill-rule="nonzero"></path>
    <path d="M20.9,25.5 C20.4,25.5 20.1,25.2 20.1,24.7 L20.1,19.3 C20.1,16.3 17.7,13.9 14.7,13.9 L14.2,13.9 C13.7,13.9 13.4,13.6 13.4,13.1 C13.4,12.6 13.7,12.3 14.2,12.3 L14.8,12.3 C18.6,12.3 21.8,15.5 21.8,19.3 L21.8,24.7 C21.7,25.2 21.3,25.5 20.9,25.5 Z"></path>
    <path d="M1.7,25.5 C1.2,25.5 0.9,25.2 0.9,24.7 L0.9,19.3 C0.9,15.5 4.1,12.3 7.9,12.3 L8.5,12.3 C9,12.3 9.3,12.6 9.3,13.1 C9.3,13.6 9,13.9 8.5,13.9 L7.9,13.9 C4.9,13.9 2.5,16.3 2.5,19.3 L2.5,24.7 C2.5,25.2 2.1,25.5 1.7,25.5 Z"></path>
  </g>
</svg>
