<?xml version="1.0" encoding="UTF-8"?>
<svg width="28px" height="28px" viewBox="0 0 28 28" version="1.1" xmlns="http://www.w3.org/2000/svg" xmlns:xlink="http://www.w3.org/1999/xlink">
  <g stroke="none" stroke-width="1" fill-rule="evenodd">
    <path d="M14.3,27.5 C6.8,27.5 0.7,21.4 0.7,13.9 C0.7,6.4 6.8,0.3 14.3,0.3 C21.8,0.3 27.9,6.4 27.9,13.9 C27.9,21.4 21.9,27.5 14.3,27.5 Z M14.3,1.9 C7.7,1.9 2.3,7.3 2.3,13.9 C2.3,20.5 7.7,25.9 14.3,25.9 C20.9,25.9 26.3,20.5 26.3,13.9 C26.3,7.3 20.9,1.9 14.3,1.9 Z" fill-rule="nonzero"></path>
    <path d="M14.3,26.7 C13.8,26.7 13.5,26.4 13.5,25.9 L13.5,1.9 C13.5,1.4 13.8,1.1 14.3,1.1 C14.8,1.1 15.1,1.4 15.1,1.9 L15.1,26 C15.1,26.4 14.8,26.7 14.3,26.7 Z"></path>
    <path d="M26.3,14.7 L2.3,14.7 C1.8,14.7 1.5,14.4 1.5,13.9 C1.5,13.4 1.8,13.1 2.3,13.1 L26.5,13.1 C27,13.1 27.3,13.4 27.3,13.9 C27.3,14.4 26.8,14.7 26.3,14.7 Z"></path>
    <path d="M12.7,27.2 C9,25.9 6.3,20.5 6.3,13.9 C6.3,7.2 9,1.7 12.7,0.6 L15.1,1.1 C15.1,1.6 14.8,1.9 14.3,1.9 C10.8,1.9 7.9,7.3 7.9,13.9 C7.9,20.5 10.8,25.9 14.3,25.9 C14.8,25.9 15.1,26.2 15.1,26.7 L12.7,27.2 Z"></path>
    <path d="M13.5,26.7 C13.5,26.2 13.8,25.9 14.3,25.9 C17.8,25.9 20.7,20.5 20.7,13.9 C20.7,7.3 17.8,1.9 14.3,1.9 C13.8,1.9 13.5,1.6 13.5,1.1 L15.6,0.5 C19.4,1.5 22.3,7.1 22.3,13.9 C22.3,20.6 19.6,26.1 15.9,27.2 L13.5,26.7 Z"></path>
  </g>
</svg>
