<?xml version="1.0" encoding="UTF-8"?>
<svg width="29px" height="19px" viewBox="0 0 29 19" version="1.1" xmlns="http://www.w3.org/2000/svg" xmlns:xlink="http://www.w3.org/1999/xlink">
  <g stroke="none" stroke-width="1" fill-rule="evenodd">
    <g transform="translate(7.000000, 2.000000)">
      <path d="M7.3,10.1 C4.9,10.1 3,8 3,5.3 C3,2.6 4.9,0.5 7.3,0.5 C9.7,0.5 11.6,2.6 11.6,5.3 C11.7,8 9.7,10.1 7.3,10.1 Z M7.3,2.1 C5.9,2.1 4.6,3.5 4.6,5.3 C4.6,7.1 5.7,8.5 7.3,8.5 C8.9,8.5 10,7.1 10,5.3 C10.1,3.6 8.8,2.1 7.3,2.1 Z" fill-rule="nonzero"></path>
      <path d="M9.1,8 L9.4,8 C12,8 14,10.1 14,12.6 L14,16 C14,16.5 13.7,16.8 13.2,16.8 C12.7,16.8 12.4,16.5 12.4,16 L12.4,12.6 C12.4,11 11,9.6 9.4,9.6 L9.1,9.6 L9.1,8 Z"></path>
      <path d="M5.6,9.6 L5.3,9.6 C3.7,9.6 2.3,11 2.3,12.6 L2.3,16 C2.3,16.5 2,16.8 1.5,16.8 C1,16.8 0.7,16.5 0.7,16 L0.7,12.6 C0.7,10 2.8,8 5.3,8 L5.6,8 L5.6,9.6 Z"></path>
    </g>
    <g>
      <g transform="translate(17.000000, 0.000000)">
        <path d="M6.1,8.9 C4.2,8.9 2.4,7.1 2.4,4.9 C2.4,2.7 4,0.9 6.1,0.9 C8.2,0.9 9.8,2.7 9.8,4.9 C9.8,7.1 8.1,8.9 6.1,8.9 Z M6.1,2.5 C5,2.5 4,3.6 4,4.9 C4,6.2 5,7.3 6.1,7.3 C7.2,7.3 8.2,6.2 8.2,4.9 C8.2,3.6 7.3,2.5 6.1,2.5 Z" fill-rule="nonzero"></path>
        <path d="M7.6,7 L7.9,7 C10,7 11.7,8.8 11.7,10.8 L11.7,13.5 C11.7,14 11.4,14.3 10.9,14.3 C10.4,14.3 10.1,14 10.1,13.5 L10.1,10.8 C10.1,9.5 9.1,8.6 7.9,8.6 L7.6,8.6 L7.6,7 Z"></path>
        <path d="M4.7,8.6 L4.4,8.6 C3.1,8.6 2.2,9.6 2.2,10.8 C2.2,11.3 1.9,11.6 1.4,11.6 C0.9,11.6 0.6,11.3 0.6,10.8 C0.6,8.7 2.4,7 4.4,7 L4.7,7 L4.7,8.6 Z"></path>
      </g>
      <g>
        <path d="M5.5,8.9 C3.6,8.9 1.8,7.1 1.8,4.9 C1.8,2.7 3.4,0.9 5.5,0.9 C7.6,0.9 9.2,2.7 9.2,4.9 C9.2,7.1 7.5,8.9 5.5,8.9 Z M5.5,2.5 C4.4,2.5 3.4,3.6 3.4,4.9 C3.4,6.2 4.4,7.3 5.5,7.3 C6.6,7.3 7.6,6.2 7.6,4.9 C7.6,3.6 6.7,2.5 5.5,2.5 Z" fill-rule="nonzero"></path>
        <path d="M7,7 L7.3,7 C9.4,7 11.1,8.8 11.1,10.8 C11.1,11.3 10.8,11.6 10.3,11.6 C9.8,11.6 9.5,11.3 9.5,10.8 C9.5,9.5 8.5,8.6 7.3,8.6 L7,8.6 C7,8.6 7,7 7,7 Z"></path>
        <path d="M4.1,8.6 L3.8,8.6 C2.5,8.6 1.6,9.6 1.6,10.8 L1.6,13.5 C1.6,14 1.3,14.3 0.8,14.3 C0.3,14.3 1.13686838e-13,14 1.13686838e-13,13.5 L1.13686838e-13,10.8 C1.13686838e-13,8.7 1.8,7 3.8,7 L4.1,7 C4.1,7 4.1,8.6 4.1,8.6 Z"></path>
      </g>
    </g>
  </g>
</svg>
