<?xml version="1.0" encoding="UTF-8"?>
<svg width="28px" height="28px" viewBox="0 0 28 28" version="1.1" xmlns="http://www.w3.org/2000/svg" xmlns:xlink="http://www.w3.org/1999/xlink">
  <g stroke="none" stroke-width="1" fill-rule="evenodd">
    <path d="M13.7,27.4 C13.5,27.4 13.2,27.2 13.1,27.2 C11.8,25.9 9.6,25.9 8.5,27.2 C8.2,27.5 7.7,27.5 7.4,27.2 L1,20.8 C0.7,20.5 0.7,20 1,19.7 C2.3,18.4 2.3,16.3 1,15.1 C0.7,14.8 0.7,14.3 1,14 L14.4,0.6 C14.6,0.4 14.7,0.4 15,0.4 C15.2,0.4 15.5,0.6 15.6,0.6 C16.9,1.9 19,1.9 20.2,0.6 C20.5,0.3 21,0.3 21.3,0.6 L27.7,7 C28,7.3 28,7.8 27.7,8.1 C26.4,9.4 26.4,11.5 27.7,12.7 C28,13 28,13.5 27.7,13.8 L14.3,27.2 C14.2,27.2 13.9,27.4 13.7,27.4 Z M2.7,20.2 L8,25.5 C9.6,24.4 12,24.4 13.8,25.5 L26.1,13.2 C24.8,11.4 24.8,9.2 26.1,7.4 L20.8,2.1 C19.2,3.2 16.8,3.2 15,2.1 L2.7,14.4 C3.8,16.2 3.8,18.4 2.7,20.2 Z" fill-rule="nonzero"></path>
    <g transform="translate(8.000000, 8.000000)">
      <path d="M7.9,11.1 C7.6,11.1 7.3,10.9 7.1,10.5 L4.4,1.1 C4.2,0.6 4.6,0.3 4.9,0.1 C5.4,-0.1 5.7,0.3 5.9,0.6 L8.6,10 C8.8,10.5 8.4,10.8 8.1,11 C8.1,11.1 8.1,11.1 7.9,11.1 Z"></path>
      <g transform="translate(0.000000, 3.000000)">
        <path d="M11.1,4.2 C10.1,4.2 9.5,3.6 9.5,2.6 C9.5,1.6 10.1,1 11.1,1 C12.1,1 12.7,1.6 12.7,2.6 C12.7,3.6 12.1,4.2 11.1,4.2 Z"></path>
        <path d="M2.2,4.1 C1.2,4.1 0.6,3.5 0.6,2.5 C0.6,1.5 1.2,0.9 2.2,0.9 C3.2,0.9 3.8,1.5 3.8,2.5 C3.8,3.5 3,4.1 2.2,4.1 Z"></path>
      </g>
    </g>
  </g>
</svg>
