<?xml version="1.0" encoding="UTF-8"?>
<svg width="27px" height="24px" viewBox="0 0 27 24" version="1.1" xmlns="http://www.w3.org/2000/svg" xmlns:xlink="http://www.w3.org/1999/xlink">
  <g stroke="none" stroke-width="1" fill-rule="evenodd">
    <path d="M21.7741935,23.6 L5.0516129,23.6 C3.91935484,23.6 2.96129032,22.5 2.96129032,21.2 L2.96129032,13.2 C2.96129032,12.7 2.7,12.4 2.26451613,12.4 L0.870967742,12.4 C0.609677419,12.4 0.348387097,12.2 0.174193548,11.9 C1.38777878e-17,11.6 0.174193548,11.3 0.435483871,10.9 L12.1064516,0.5 C12.8032258,-0.1 13.9354839,-0.1 14.6322581,0.5 L26.3032258,10.9 C26.5645161,11.1 26.5645161,11.5 26.5645161,11.9 C26.3903226,12.2 26.1290323,12.4 25.8677419,12.4 L24.4741935,12.4 C24.0387097,12.4 23.7774194,12.7 23.7774194,13.2 L23.7774194,21.2 C23.8645161,22.5 22.8193548,23.6 21.7741935,23.6 Z M2.78709677,10.8 C3.65806452,11.1 4.35483871,12.1 4.35483871,13 L4.35483871,21 C4.35483871,21.5 4.61612903,21.8 5.0516129,21.8 L21.7741935,21.8 C22.2096774,21.8 22.4709677,21.5 22.4709677,21 L22.4709677,13 C22.4709677,11.9 23.1677419,10.9 24.0387097,10.8 L13.8483871,1.7 C13.5870968,1.5 13.3258065,1.5 12.9774194,1.7 L2.78709677,10.8 Z" fill-rule="nonzero"></path>
    <path d="M15.5032258,22.8 L15.5032258,14.8 C15.5032258,14.3 15.2419355,14 14.8064516,14 L12.0193548,14 C11.583871,14 11.3225806,14.3 11.3225806,14.8 L11.3225806,22.8 L9.92903226,22.8 L9.92903226,14.8 C9.92903226,13.5 10.8870968,12.4 12.0193548,12.4 L14.8064516,12.4 C15.9387097,12.4 16.8967742,13.5 16.8967742,14.8 L16.8967742,22.8 L15.5032258,22.8 Z"></path>
  </g>
</svg>
