<?xml version="1.0" encoding="UTF-8"?>
<svg width="25px" height="28px" viewBox="0 0 25 28" version="1.1" xmlns="http://www.w3.org/2000/svg" xmlns:xlink="http://www.w3.org/1999/xlink">
  <g stroke="none" stroke-width="1" fill-rule="evenodd">
    <path d="M20.2,27.2 L4.7,27.2 C3.6,27.2 2.5,26.7 1.8,25.9 C1,25.1 0.7,24 0.7,22.9 L1.8,8.2 C2,6.9 2.9,6 4.2,6 L20.5,6 C21.8,6 22.7,7 22.9,8.2 L24,22.9 C24.2,24 23.7,25.1 22.9,25.9 C22.4,26.7 21.3,27.2 20.2,27.2 Z M4.3,7.5 C3.8,7.5 3.5,7.8 3.5,8.3 L2.4,23 C2.4,23.6 2.6,24.3 3,24.8 C3.5,25.3 4.1,25.6 4.8,25.6 L20.3,25.6 C20.9,25.6 21.6,25.3 22.1,24.8 C22.6,24.3 22.7,23.7 22.7,23 L21.6,8.3 C21.6,7.8 21.3,7.5 20.8,7.5 L4.3,7.5 Z" fill-rule="nonzero"></path>
    <path d="M15.5,10.2 C15,10.2 14.7,9.9 14.7,9.4 L14.7,4.4 C14.7,3.1 13.7,2.2 12.5,2.2 C11.3,2.2 10.3,3.2 10.3,4.4 L10.3,9.4 C10.3,9.9 10,10.2 9.5,10.2 C9,10.2 8.7,9.9 8.7,9.4 L8.7,4.4 C8.7,2.3 10.5,0.6 12.5,0.6 C14.6,0.6 16.3,2.4 16.3,4.4 L16.3,9.4 C16.3,9.9 15.8,10.2 15.5,10.2 Z"></path>
  </g>
</svg>
