<?xml version="1.0" encoding="UTF-8"?>
<svg width="28px" height="28px" viewBox="0 0 28 28" version="1.1" xmlns="http://www.w3.org/2000/svg" xmlns:xlink="http://www.w3.org/1999/xlink">
  <g stroke="none" stroke-width="1" fill-rule="evenodd">
    <path d="M14,27 C21.1683862,27 27,21.1683862 27,14 C27,6.83161376 21.1683862,1 14,1 C6.83161376,1 1,6.83161376 1,14 C1,17.1307943 2.11280051,20.0064916 3.96329664,22.2529496 L3.96971417,22.2879252 L3.98960853,22.2843955 C6.3759688,25.1629807 9.97716839,27 14,27 Z M10.2746211,25.7832354 L10.7139014,25.0038258 L12.1129239,24.563583 L16.0635583,24.6117145 L18.1498988,24.649257 L18.1502197,24.6370637 L18.172681,24.6373846 L18.9203238,25.334008 C17.4115614,25.9914844 15.7484573,26.3585674 14.0003209,26.3585674 C12.7020536,26.3582465 11.4509552,26.1560942 10.2746211,25.7832354 Z M11.2337217,20.0754801 L11.297897,20.0097004 L15.1221059,16.090191 L19.5338402,16.090191 L21.2181221,20.0385793 L18.0940662,23.9946685 L16.0831318,23.9702819 L12.997902,23.9147702 L11.2337217,20.0754801 Z M6.45618798,18.2801748 L4.42247124,12.2691909 L6.9910895,9.40408254 L12.6998075,10.4430814 L14.5503036,15.7510243 L10.8332675,19.5668905 L10.7485561,19.6538481 L6.45618798,18.2801748 Z M7.24233598,6.08589623 L12.0243619,2.65957447 L16.2105198,3.64049464 L16.7595399,7.2545293 L12.9507331,9.8417584 L12.9516957,9.83662438 L7.24233598,8.79730464 L7.24233598,6.08589623 Z M21.7584786,19.6698919 L20.0414671,15.645135 L21.7674631,10.824283 L24.6380264,10.6192427 L26.3511872,14.2798045 C26.304981,16.342721 25.753073,18.2821 24.8112998,19.9785753 L24.8112998,18.8763637 L21.7584786,19.6698919 Z M24.0097497,6.76455053 L24.4483882,9.9893617 L21.4562127,10.2033865 L17.4176581,7.31549588 L16.8612578,3.65108358 L19.6836896,3.03211236 C21.4000592,3.92479143 22.8812262,5.20797749 24.0097497,6.76455053 Z M11.7737572,1.84647282 L11.6620921,2.12980698 L7.0283112,5.44991855 L4.11603396,6.59031446 C5.94759836,4.15325566 8.65900676,2.41570815 11.7737572,1.84647282 Z M1.96583897,11.1984252 L3.75023449,12.2839512 L5.93059189,18.7287604 L5.24584094,21.4039098 L4.25304833,21.5842425 C2.61882312,19.4885965 1.64175347,16.8570864 1.64175347,14 C1.64175347,13.0364072 1.75598559,12.0994471 1.96583897,11.1984252 Z M4.72249099,22.1512317 L5.58821642,21.9940021 L9.97203436,25.0128104 L9.65853779,25.5688898 C7.74194106,24.8475589 6.0518833,23.6622402 4.72249099,22.1512317 Z" stroke="currentColor" stroke-width="0.5" fill-rule="nonzero"></path>
  </g>
</svg>
