<?xml version="1.0" encoding="UTF-8"?>
<svg width="25px" height="25px" viewBox="0 0 25 25" version="1.1" xmlns="http://www.w3.org/2000/svg" xmlns:xlink="http://www.w3.org/1999/xlink">
  <g stroke="none" stroke-width="1" fill-rule="evenodd">
    <g transform="translate(6.000000, 0.000000)">
      <path d="M6.3,16.1 C6.1,16.1 5.8,16.1 5.7,15.9 L0.9,11.1 C0.6,10.8 0.6,10.3 0.9,10 C1.2,9.7 1.7,9.7 2,10 L6.2,14.2 L10.4,10 C10.7,9.7 11.2,9.7 11.5,10 C11.8,10.3 11.8,10.8 11.5,11.1 L6.7,15.9 C6.8,16.1 6.5,16.1 6.3,16.1 Z"></path>
      <path d="M6.3,15.3 C5.8,15.3 5.5,15 5.5,14.5 L5.5,1.7 C5.5,1.2 5.8,0.9 6.3,0.9 C6.8,0.9 7.1,1.2 7.1,1.7 L7.1,14.5 C7.1,15 6.8,15.3 6.3,15.3 Z"></path>
    </g>
    <path d="M20.3,24.9 L4.3,24.9 C2.1,24.9 0.3,23.1 0.3,20.9 L0.3,17.7 C0.3,17.2 0.6,16.9 1.1,16.9 C1.6,16.9 1.9,17.2 1.9,17.7 L1.9,20.9 C1.9,22.2 3,23.3 4.3,23.3 L20.3,23.3 C21.6,23.3 22.7,22.2 22.7,20.9 L22.7,17.7 C22.7,17.2 23,16.9 23.5,16.9 C24,16.9 24.3,17.2 24.3,17.7 L24.3,20.9 C24.3,23.1 22.6,24.9 20.3,24.9 Z"></path>
  </g>
</svg>
