<?xml version="1.0" encoding="UTF-8"?>
<svg width="27px" height="24px" viewBox="0 0 27 24" version="1.1" xmlns="http://www.w3.org/2000/svg" xmlns:xlink="http://www.w3.org/1999/xlink">
  <g stroke="none" stroke-width="1" fill-rule="evenodd">
    <g fill-rule="nonzero">
      <path d="M23.7,23.1 L2.9,23.1 C1.6,23.1 0.5,22 0.5,20.7 L0.5,3.1 C0.5,1.8 1.6,0.7 2.9,0.7 L9.3,0.7 C10.6,0.7 11.7,1.8 11.7,3.1 L11.7,4.7 C11.7,5.2 12,5.5 12.5,5.5 L23.7,5.5 C25,5.5 26.1,6.6 26.1,7.9 L26.1,20.7 C26.1,22 25,23.1 23.7,23.1 Z M2.9,2.3 C2.4,2.3 2.1,2.6 2.1,3.1 L2.1,20.7 C2.1,21.2 2.4,21.5 2.9,21.5 L23.7,21.5 C24.2,21.5 24.5,21.2 24.5,20.7 L24.5,7.9 C24.5,7.4 24.2,7.1 23.7,7.1 L12.5,7.1 C11.2,7.1 10.1,6 10.1,4.7 L10.1,3.1 C10.1,2.6 9.8,2.3 9.3,2.3 L2.9,2.3 Z"></path>
    </g>
  </g>
</svg>
