<?xml version="1.0" encoding="UTF-8"?>
<svg width="27px" height="25px" viewBox="0 0 27 25" version="1.1" xmlns="http://www.w3.org/2000/svg" xmlns:xlink="http://www.w3.org/1999/xlink">
  <g stroke="none" stroke-width="1" fill-rule="evenodd">
    <g>
      <path d="M22.1,24.9 L4.5,24.9 C2.3,24.9 0.5,23.1 0.5,20.9 L0.5,6.5 C0.5,4.3 2.3,2.5 4.5,2.5 L22.1,2.5 C24.3,2.5 26.1,4.3 26.1,6.5 L26.1,20.9 C26.1,23.1 24.4,24.9 22.1,24.9 Z M4.5,4.1 C3.2,4.1 2.1,5.2 2.1,6.5 L2.1,20.9 C2.1,22.2 3.2,23.3 4.5,23.3 L22.1,23.3 C23.4,23.3 24.5,22.2 24.5,20.9 L24.5,6.5 C24.5,5.2 23.4,4.1 22.1,4.1 L4.5,4.1 Z" fill-rule="nonzero"></path>
      <g transform="translate(7.000000, 0.000000)">
        <path d="M1.5,5.7 C1,5.7 0.7,5.4 0.7,4.9 L0.7,1.7 C0.7,1.2 1,0.9 1.5,0.9 C2,0.9 2.3,1.2 2.3,1.7 L2.3,4.9 C2.3,5.4 2,5.7 1.5,5.7 Z"></path>
        <path d="M11.1,5.7 C10.6,5.7 10.3,5.4 10.3,4.9 L10.3,1.7 C10.3,1.2 10.6,0.9 11.1,0.9 C11.6,0.9 11.9,1.2 11.9,1.7 L11.9,4.9 C11.9,5.4 11.6,5.7 11.1,5.7 Z"></path>
      </g>
      <path d="M24.5,10.5 L2.1,10.5 C1.6,10.5 1.3,10.2 1.3,9.7 C1.3,9.2 1.6,8.9 2.1,8.9 L24.5,8.9 C25,8.9 25.3,9.2 25.3,9.7 C25.3,10.2 25,10.5 24.5,10.5 Z"></path>
    </g>
    <g transform="translate(4.000000, 12.000000)">
      <path d="M2.1,8.9 C1.6,8.9 1.3,8.7 1,8.4 C0.7,8.1 0.5,7.6 0.5,7.3 C0.5,6.8 0.7,6.5 1,6.2 C1.6,5.6 2.6,5.6 3.2,6.2 C3.5,6.5 3.7,7 3.7,7.3 C3.7,7.6 3.5,8.1 3.2,8.4 C2.9,8.7 2.6,8.9 2.1,8.9 Z"></path>
      <path d="M2.1,4.1 C1.6,4.1 1.3,3.9 1,3.6 C0.7,3.3 0.5,3 0.5,2.5 C0.5,2 0.7,1.7 1,1.4 C1.6,0.8 2.6,0.8 3.2,1.4 C3.5,1.7 3.7,2.2 3.7,2.5 C3.7,2.8 3.5,3.3 3.2,3.6 C2.9,3.9 2.6,4.1 2.1,4.1 Z"></path>
      <path d="M6.9,8.9 C6.4,8.9 6.1,8.7 5.8,8.4 C5.5,8.1 5.3,7.6 5.3,7.3 C5.3,7 5.5,6.5 5.8,6.2 C6.4,5.6 7.4,5.6 8,6.2 C8.3,6.5 8.5,7 8.5,7.3 C8.5,7.6 8.3,8.1 8,8.4 C7.7,8.7 7.4,8.9 6.9,8.9 Z"></path>
      <path d="M6.9,4.1 C6.4,4.1 6.1,3.9 5.8,3.6 C5.5,3.3 5.3,2.8 5.3,2.5 C5.3,2.2 5.5,1.7 5.8,1.4 C6.4,0.8 7.4,0.8 8,1.4 C8.3,1.7 8.5,2.2 8.5,2.5 C8.5,2.8 8.3,3.3 8,3.6 C7.7,3.9 7.4,4.1 6.9,4.1 Z"></path>
      <path d="M11.7,8.9 C11.2,8.9 10.9,8.7 10.6,8.4 C10.3,8.1 10.1,7.6 10.1,7.3 C10.1,7 10.3,6.5 10.6,6.2 C11.2,5.6 12.2,5.6 12.8,6.2 C13.1,6.5 13.3,6.8 13.3,7.3 C13.3,7.8 13.1,8.1 12.8,8.4 C12.5,8.7 12.2,8.9 11.7,8.9 Z"></path>
      <path d="M11.7,4.1 C11.2,4.1 10.9,3.9 10.6,3.6 C10.3,3.3 10.1,2.8 10.1,2.5 C10.1,2.2 10.3,1.7 10.6,1.4 C11.2,0.8 12.2,0.8 12.8,1.4 C13.1,1.7 13.3,2.2 13.3,2.5 C13.3,3 13.1,3.3 12.8,3.6 C12.5,3.9 12.2,4.1 11.7,4.1 Z"></path>
      <path d="M16.5,8.9 C16,8.9 15.7,8.7 15.4,8.4 C15.1,8.1 14.9,7.6 14.9,7.3 C14.9,6.8 15.1,6.5 15.4,6.2 C16,5.6 17,5.6 17.6,6.2 C17.9,6.5 18.1,7 18.1,7.3 C18.1,7.6 17.9,8.1 17.6,8.4 C17.3,8.7 17,8.9 16.5,8.9 Z"></path>
      <path d="M16.5,4.1 C16,4.1 15.7,3.9 15.4,3.6 C15.1,3.3 14.9,2.8 14.9,2.5 C14.9,2.2 15.1,1.7 15.4,1.4 C16,0.8 17,0.8 17.6,1.4 C17.9,1.7 18.1,2.2 18.1,2.5 C18.1,3 17.9,3.3 17.6,3.6 C17.3,3.9 17,4.1 16.5,4.1 Z"></path>
    </g>
  </g>
</svg>
