<?xml version="1.0" encoding="UTF-8"?>
<svg width="26px" height="24px" viewBox="0 0 26 24" version="1.1" xmlns="http://www.w3.org/2000/svg" xmlns:xlink="http://www.w3.org/1999/xlink">
  <g stroke="none" stroke-width="1" fill-rule="evenodd">
    <path d="M16.7,14 C15.6,14 14.5,13.5 13.7,12.7 C12.4,11.4 11,8.7 15,4.7 C18.2,1.5 24.9,0.4 25.2,0.2 C25.5,0.2 25.7,0.2 25.8,0.4 C26,0.6 26.1,0.9 26,1 C26,1.3 24.7,8 21.5,11.2 C19.9,13.1 18.3,14 16.7,14 Z M24.4,2 C22.3,2.5 18.3,3.6 16.1,5.7 C13.7,8.1 13.4,10 14.8,11.5 C16.4,13.1 18.3,12.6 20.6,10.2 C22.7,8.1 23.9,4 24.4,2 Z" fill-rule="nonzero"></path>
    <path d="M12.7,22.7 L11.1,22.7 C11.1,19.3 12.2,15.8 14.3,12.1 L15.7,12.9 C13.7,16.3 12.7,19.6 12.7,22.7 Z"></path>
    <g transform="translate(0.000000, 2.000000)">
      <path d="M8.1,10.1 C7,10.1 5.9,9.6 4.6,8.7 C2,6.6 0.8,2 0.6,1.8 C0.6,1.5 0.6,1.3 0.8,1 C1,0.8 1.1,0.7 1.4,0.7 C1.6,0.7 6.5,1 9.1,2.9 C10.5,4 11.3,5.1 11.5,6.3 C11.7,7.1 11.3,7.9 10.7,8.7 C10,9.6 9.1,10.1 8.1,10.1 Z M2.5,2.4 C3,3.8 4.1,6.1 5.5,7.4 C7.1,8.7 8.4,9 9.3,7.9 C9.6,7.4 9.8,7.1 9.6,6.6 C9.4,6 9,5.2 7.8,4.2 C6.7,3.1 4.1,2.6 2.5,2.4 Z" fill-rule="nonzero"></path>
      <path d="M13.5,15.9 L11.9,15.9 C11.9,13.5 11.1,11.1 9.2,8.9 L10.5,7.9 C12.4,10.4 13.5,13.2 13.5,15.9 Z"></path>
    </g>
    <path d="M15.1,23.5 L8.9,23.5 C8.4,23.5 8.1,23.2 8.1,22.7 C8.1,22.2 8.4,21.9 8.9,21.9 L15.1,21.9 C15.6,21.9 15.9,22.2 15.9,22.7 C15.9,23.2 15.6,23.5 15.1,23.5 Z"></path>
  </g>
</svg>
