<?xml version="1.0" encoding="UTF-8"?>
<svg width="22px" height="28px" viewBox="0 0 22 28" version="1.1" xmlns="http://www.w3.org/2000/svg" xmlns:xlink="http://www.w3.org/1999/xlink">
  <g stroke="none" stroke-width="1" fill-rule="evenodd">
    <path d="M17.7,27.5 L4.9,27.5 C2.7,27.5 0.9,25.7 0.9,23.5 L0.9,4.3 C0.9,2.1 2.7,0.3 4.9,0.3 L10.7,0.3 C11.3,0.3 12,0.6 12.5,0.9 L21.1,9.5 C21.6,10 21.7,10.6 21.7,11.3 L21.7,23.5 C21.7,25.7 20,27.5 17.7,27.5 Z M4.9,1.9 C3.6,1.9 2.5,3 2.5,4.3 L2.5,23.5 C2.5,24.8 3.6,25.9 4.9,25.9 L17.7,25.9 C19,25.9 20.1,24.8 20.1,23.5 L20.1,11.3 C20.1,11.1 19.9,10.8 19.9,10.7 L11.3,2.1 C11.1,1.9 11,1.9 10.7,1.9 L4.9,1.9 Z" fill-rule="nonzero"></path>
    <path d="M12.1,1.1 L12.1,7.5 C12.1,8.8 13.2,9.9 14.5,9.9 L20.9,9.9 L20.9,11.5 L14.5,11.5 C12.3,11.5 10.5,9.7 10.5,7.5 L10.5,1.1 L12.1,1.1 Z"></path>
  </g>
</svg>
