<?xml version="1.0" encoding="UTF-8"?>
<svg width="28px" height="15px" viewBox="0 0 28 15" version="1.1" xmlns="http://www.w3.org/2000/svg" xmlns:xlink="http://www.w3.org/1999/xlink">
  <g stroke="none" stroke-width="1" fill-rule="evenodd">
    <path d="M0.689119171,9.28497409 L4.42487047,9.28497409 C4.67875648,9.28497409 4.89637306,9.1761658 5.04145078,8.95854922 L6.67357513,6.45595855 L10.2642487,14.5440415 C10.373057,14.7979275 10.626943,14.9792746 10.9170984,14.9792746 C10.9170984,14.9792746 10.9533679,14.9792746 10.9533679,14.9792746 C11.2435233,14.9792746 11.4974093,14.761658 11.6062176,14.507772 L15.7046632,2.86528497 L19.1139896,11.5699482 C19.2227979,11.8238342 19.4041451,11.9689119 19.6580311,12.0051813 C19.9119171,12.0414508 20.1658031,11.9689119 20.3471503,11.7512953 L22.4870466,9.24870466 L27.2746114,9.24870466 C27.6735751,9.24870466 28,8.92227979 28,8.52331606 C28,8.12435233 27.6735751,7.79792746 27.2746114,7.79792746 L22.1606218,7.79792746 C21.9430052,7.79792746 21.761658,7.90673575 21.6165803,8.05181347 L20.0207254,9.9015544 L16.3212435,0.471502591 C16.2124352,0.18134715 15.9585492,0 15.6321244,0 C15.6321244,0 15.6321244,0 15.6321244,0 C15.3419689,0 15.0518135,0.18134715 14.9430052,0.471502591 L10.880829,12.2953368 L7.47150259,4.64248705 C7.3626943,4.38860104 7.14507772,4.24352332 6.85492228,4.20725389 C6.60103627,4.17098446 6.34715026,4.31606218 6.20207254,4.53367876 L4.06217617,7.79792746 L0.725388601,7.79792746 C0.32642487,7.79792746 0,8.12435233 0,8.52331606 C0,8.92227979 0.29015544,9.28497409 0.689119171,9.28497409 Z"></path>
  </g>
</svg>
