<?xml version="1.0" encoding="UTF-8"?>
<svg width="26px" height="25px" viewBox="0 0 26 25" version="1.1" xmlns="http://www.w3.org/2000/svg" xmlns:xlink="http://www.w3.org/1999/xlink">
  <g fill-rule="evenodd">
    <path d="M18.875,24 C18.575,24 18.075,23.8 17.775,23.7 L13.275,21.5 C13.075,21.3 12.775,21.3 12.675,21.5 L8.175,23.7 C7.175,24.2 5.975,23.9 5.275,23.1 C4.775,22.6 4.675,21.8 4.775,21.2 L5.375,16.2 C5.375,15.9 5.375,15.7 5.175,15.6 L1.675,12.1 C1.075,11.5 0.875,10.5 1.075,9.7 C1.375,8.9 2.075,8.3 2.975,8.1 L7.975,7.3 C8.275,7.3 8.475,7.1 8.575,6.8 L10.775,2.3 C11.275,1.5 12.075,1 12.875,1 C13.675,1 14.675,1.5 14.975,2.3 L17.175,6.8 C17.375,7 17.475,7.1 17.775,7.3 L22.775,8.1 C23.775,8.3 24.375,8.9 24.675,9.7 C24.975,10.5 24.675,11.5 24.075,12.1 L20.575,15.6 C20.375,15.8 20.275,16.1 20.375,16.2 L21.175,21.2 C21.375,21.8 20.975,22.6 20.675,23.1 C20.175,23.7 19.575,24 18.875,24 Z" stroke="currentColor" stroke-width="2" fill-rule="nonzero"></path>
  </g>
</svg>
