<?xml version="1.0" encoding="UTF-8"?>
<svg width="28px" height="26px" viewBox="0 0 28 26" version="1.1" xmlns="http://www.w3.org/2000/svg" xmlns:xlink="http://www.w3.org/1999/xlink">
  <g stroke="none" stroke-width="1" fill-rule="evenodd">
    <g transform="translate(13.000000, 8.000000)">
      <path d="M1.3,8.2 C0.8,8.2 0.5,7.9 0.5,7.4 L0.5,1.6 C0.5,1.1 0.8,0.8 1.3,0.8 C1.8,0.8 2.1,1.1 2.1,1.6 L2.1,7.4 C2.1,7.8 1.8,8.2 1.3,8.2 Z"></path>
      <path d="M1.3,12.3 C1.1,12.3 0.8,12.3 0.7,12.1 C0.5,11.9 0.5,11.8 0.5,11.5 C0.5,11.3 0.5,11 0.7,10.9 C1,10.6 1.5,10.6 1.8,10.9 C2,11.1 2,11.2 2,11.5 C2,11.7 1.8,12 1.7,12.1 C1.8,12.3 1.5,12.3 1.3,12.3 Z"></path>
    </g>
    <path d="M23.8,25.3 L4.9,25.3 C3.5,25.3 2,24.5 1.4,23.2 C0.6,21.9 0.6,20.3 1.4,19 L10.8,2.5 C11.6,1.2 12.9,0.4 14.3,0.4 C15.7,0.4 17.2,1.2 17.8,2.5 L27.2,19 C28,20.3 28,21.9 27.2,23.2 C26.7,24.5 25.4,25.3 23.8,25.3 Z M14.3,2.2 C13.3,2.2 12.5,2.7 12.2,3.5 L2.8,20 C2.3,20.8 2.3,21.8 2.8,22.6 C3.3,23.4 4.1,23.9 4.9,23.9 L23.9,23.9 C24.9,23.9 25.7,23.4 26,22.6 C26.5,21.8 26.5,20.8 26,20 L16.6,3.5 C16.1,2.7 15.3,2.2 14.3,2.2 Z" fill-rule="nonzero"></path>
  </g>
</svg>
